<svg width="48" height="25" viewBox="0 0 96 25" fill="none" xmlns="http://www.w3.org/2000/svg">
<path fill-rule="evenodd" clip-rule="evenodd" d="M57.4358 0.315308L50.3901 15.2856L50.3862 15.2782L45.8797 24.6845H50.2998L61.5791 0.315308H57.4358ZM67.9824 10.4805V4.38821H79.5792V0.315308H64.1055V24.6845H79.5792V20.6111H67.9824V14.5188H77.6242V10.4805H67.9824ZM83.6844 24.6845H96.0002V20.6111H87.6737V0.315308H83.6844V24.6845ZM44.5265 12.3838L38.8423 0.315586H42.9856L46.7157 8.0163L44.5265 12.3838Z" fill="#E16245"/>
<path fill-rule="evenodd" clip-rule="evenodd" d="M20.2976 4.38821V10.4805H29.9402V14.5188H20.2976V20.6111H31.8947V24.6845H16.421V0.315308H31.8947V4.38821H20.2976ZM55.8948 0.315308L44.6155 24.6845L33.1579 0.315308H37.3012L44.5823 15.2708L51.7515 0.315308H55.8948ZM0 24.6848H12.3158V20.6114H3.98924V0.315586H0V24.6848Z" fill="#A8D1BF"/>
</svg>
